<?xml version="1.0" standalone="no"?>
<!DOCTYPE svg PUBLIC "-//W3C//DTD SVG 20010904//EN"
 "http://www.w3.org/TR/2001/REC-SVG-20010904/DTD/svg10.dtd">
<svg version="1.0" xmlns="http://www.w3.org/2000/svg"
 width="225.000000pt" height="225.000000pt" viewBox="0 0 225.000000 225.000000"
 preserveAspectRatio="xMidYMid meet">
<metadata>
Created by potrace 1.14, written by Peter Selinger 2001-2017
</metadata>
<g transform="translate(0.000000,225.000000) scale(0.100000,-0.100000)"
fill="#000000" stroke="none">
<path d="M1269 2098 c-135 -150 -701 -772 -791 -870 -127 -138 -131 -144 -118
-168 10 -20 19 -20 388 -20 392 0 402 -1 402 -41 0 -10 -86 -206 -191 -436
-105 -230 -195 -428 -199 -439 -11 -27 9 -58 30 -49 17 8 1078 1193 1100 1229
12 20 12 27 1 40 -12 14 -58 16 -400 16 -398 0 -411 1 -411 39 0 9 53 144 118
301 197 473 187 447 172 464 -7 9 -16 16 -20 16 -4 0 -40 -37 -81 -82z m-35
-184 c-25 -60 -82 -193 -125 -295 -84 -198 -93 -240 -60 -280 l19 -24 365 -5
c201 -3 368 -8 372 -12 4 -4 -2 -13 -14 -20 -12 -7 -21 -18 -21 -23 0 -6 -19
-29 -41 -50 -23 -22 -38 -33 -33 -25 7 13 4 12 -16 -1 -14 -9 -117 -69 -230
-134 -257 -148 -280 -163 -280 -177 0 -6 -2 -9 -5 -6 -7 6 15 58 24 58 7 0 11
26 14 83 1 27 -5 44 -21 60 -22 22 -27 22 -388 27 l-365 5 358 396 c483 534
487 538 490 535 1 -1 -18 -52 -43 -112z m446 -768 c0 -2 -8 -10 -17 -17 -16
-13 -17 -12 -4 4 13 16 21 21 21 13z"/>
</g>
</svg>
